PathFileType	4	(X/Y/Z)	/Users/visionmauri/4_2_2_f_1_Sports2D/4_2_2_f_1_Sports2D_m_person00.trc
DataRate	CameraRate	NumFrames	NumMarkers	Units	OrigDataRate	OrigDataStartFrame	OrigNumFrames
30.0	30.0	8	22	m	30.0	162	325
Frame#	Time	Hip			RHip			RKnee			RAnkle			RBigToe			RSmallToe			RHeel			LHip			LKnee			LAnkle			LBigToe			LSmallToe			LHeel			Neck			Head			Nose			RShoulder			RElbow			RWrist			LShoulder			LElbow			LWrist			
		X1	Y1	Z1	X2	Y2	Z2	X3	Y3	Z3	X4	Y4	Z4	X5	Y5	Z5	X6	Y6	Z6	X7	Y7	Z7	X8	Y8	Z8	X9	Y9	Z9	X10	Y10	Z10	X11	Y11	Z11	X12	Y12	Z12	X13	Y13	Z13	X14	Y14	Z14	X15	Y15	Z15	X16	Y16	Z16	X17	Y17	Z17	X18	Y18	Z18	X19	Y19	Z19	X20	Y20	Z20	X21	Y21	Z21	X22	Y22	Z22
162	5.416666666666667	1.2865982584263094	0.957075258617773	0.0301	1.2050839923950514	0.9884842252472165	0.0301	1.1346753705740287	0.7230014853474329	0.129	0.987741046854928	0.37537977533964223	0.023	1.0223348009630244	0.27443148835408526	0.2179	0.9761217322233323	0.28843295722720375	0.1804	0.9559450006636708	0.32308808567738345	-0.0119	1.3688289709770842	0.9295145981843557	0.0301	1.2866359922931514	0.6364068008173418	0.129	1.1656126836360088	0.3392455235132944	0.023	1.2676285373835374	0.2538937219708843	0.2179	1.2683560865963135	0.2697261061452276	0.1804	1.1300200060249852	0.2866881385028518	-0.0119	1.4359622021263307	1.3765353963811724	0.0008	1.523774112496746	1.5753028585114242	0.0655	1.4671081369146988	1.4214035616381893	0.1076	1.2788789415297654	1.3789151226606489	-0.01275	1.1074715292169621	1.212590508942656	0.0702	0.999594352667597	1.0644421964990551	0.1076	1.5752082543994697	1.3189338860912339	-0.01275	1.570726875973231	1.0906805567843534	0.0702	1.576343494412314	0.9209430388284751	0.1076
163	5.450102880658436	1.2838208973899028	0.9567250975095227	0.0301	1.2013592687133692	0.9872262469476176	0.0301	1.1334863164260927	0.7217898275033772	0.129	0.984062305258515	0.3788344721311067	0.023	1.0247303701600192	0.2732702918792859	0.2179	0.9783016452501999	0.2857944201176995	0.1804	0.9566432369507517	0.32436496515762286	-0.0119	1.3661558283499902	0.9297114543515732	0.0301	1.290473126800306	0.6352043641237877	0.129	1.1678334804573511	0.33904609052302465	0.023	1.2701873782645081	0.2521525480959971	0.2179	1.2704092787524683	0.27009875048256937	0.1804	1.13187979303574	0.28725934100870465	-0.0119	1.4291955799973342	1.380740405156932	0.0008	1.5129908000403274	1.5774589502452114	0.0655	1.458817432772219	1.425922286958969	0.1076	1.270292267788543	1.3785138292023358	-0.01275	1.101177684797346	1.2117746711376554	0.0702	0.996949992320202	1.0652458739908282	0.1076	1.5695842079177948	1.3218035878202203	-0.01275	1.569895384240676	1.0918183234423744	0.0702	1.5764409601017155	0.9196639770705726	0.1076
164	5.483539094650206	1.2808577048076983	0.9550843635427406	0.0301	1.1970209800949065	0.9838608481477314	0.0301	1.1300277667850913	0.7192947156586181	0.129	0.979042613057228	0.3806086930208243	0.023	1.0240336170792212	0.2718405190764034	0.2179	0.9785362542053813	0.28142800178427274	0.1804	0.9534609835780384	0.3242176947175395	-0.0119	1.3637461475165054	0.9287082129053504	0.0301	1.2953786930810314	0.633333373421962	0.129	1.1712837534381086	0.3391170499779194	0.023	1.2725973504422905	0.25068255042895515	0.2179	1.2741141154087883	0.2695964773071361	0.1804	1.1346330865660788	0.2901148531480095	-0.0119	1.4222812487003542	1.3839669734802147	0.0008	1.4999174099127572	1.580064545758736	0.0655	1.448334426636224	1.4309525068253044	0.1076	1.2625436210749819	1.3767286573846464	-0.01275	1.0958682610293642	1.2126802531699863	0.0702	0.9950783137361139	1.0672541941111067	0.1076	1.5645205575667185	1.324337392498478	-0.01275	1.5681619210921411	1.0929302314518987	0.0702	1.5755293975406166	0.9192761187306514	0.1076
165	5.5169753086419755	1.2782711504271662	0.9537949686260402	0.0301	1.1932643335601067	0.980246470797944	0.0301	1.124893612184782	0.7146874799537366	0.129	0.9735956208636306	0.3789979664036204	0.023	1.0239755861336484	0.26805775890603534	0.2179	0.9823751405413561	0.2748265686142996	0.1804	0.9474943550886655	0.3238034895249689	-0.0119	1.3625111583426814	0.9284340671111214	0.0301	1.3024419524131303	0.6312859874503065	0.129	1.1754899037452078	0.3404259582791174	0.023	1.2738862797133406	0.24998858358321263	0.2179	1.2785184338855564	0.26847045631201677	0.1804	1.1385671954332115	0.29453395833668217	-0.0119	1.4158761352761777	1.3855810963857664	0.0008	1.486801016086285	1.5831089302317958	0.0655	1.4371853313567353	1.4361390768453617	0.1076	1.2556880516456923	1.3756670235938575	-0.01275	1.0914480222328942	1.2144057995411024	0.0702	0.9909093704530916	1.0674882814701094	0.1076	1.559492272537121	1.327363672466561	-0.01275	1.564945940390793	1.093783654013362	0.0702	1.5746998446786786	0.9195915572535391	0.1076
166	5.550411522633745	1.275696021065458	0.9548606658378004	0.0301	1.189218502679635	0.9798661583212134	0.0301	1.1208554947071157	0.713562085933878	0.129	0.9706467377362843	0.37615678670288455	0.023	1.0224040293389958	0.2647026277809493	0.2179	0.9873990301114685	0.2708416139890769	0.1804	0.9461500946448517	0.3229980846432714	-0.0119	1.3613857172175103	0.9308961889163635	0.0301	1.3123929172103392	0.6295668815247637	0.129	1.1808324648038326	0.3438443378763173	0.023	1.2737229062126385	0.24997655063779178	0.2179	1.2830070683388264	0.26630887747941	0.1804	1.1444666452936236	0.2998475613069247	-0.0119	1.410407737258511	1.385791959620506	0.0008	1.4763946418890617	1.5878644367560928	0.0655	1.4292949241630424	1.4407672811255223	0.1076	1.248672447879927	1.376469928574662	-0.01275	1.0885574041027903	1.2152901058219756	0.0702	0.9845656005826903	1.0652963503529291	0.1076	1.5546067115066855	1.329913556299244	-0.01275	1.5617822764417282	1.0944327067163895	0.0702	1.5748700888654228	0.9186805837440785	0.1076
167	5.583847736625515	1.2737923701753862	0.9572412898122159	0.0301	1.1847026193277157	0.9820637142479185	0.0301	1.119684601762735	0.7165253426965205	0.129	0.9733043591578979	0.3760359644580836	0.023	1.0143051539107575	0.2659900393463864	0.2179	0.988593889518296	0.2724682741406711	0.1804	0.9536430648910578	0.32244001170221215	-0.0119	1.3606842727325184	0.9341963046724385	0.0301	1.325491532964064	0.6277239461765955	0.129	1.1877046801773732	0.3497751965949543	0.023	1.2730579897527827	0.250751359294293	0.2179	1.2871289661629137	0.26392729673171544	0.1804	1.1516872515559435	0.3072805579291484	-0.0119	1.405539603061003	1.3860411984118823	0.0008	1.4693469519385578	1.5951574332796477	0.0655	1.4262670498428653	1.4438086544329571	0.1076	1.2414906148697893	1.3788805051697255	-0.01275	1.0867674950967363	1.2142804550715351	0.0702	0.9793109161766055	1.0630472839225573	0.1076	1.551102012363562	1.3317691785209713	-0.01275	1.5607370440491304	1.0961347343384504	0.0702	1.5754696407073392	0.9171604163042826	0.1076
168	5.617283950617284	1.2736604679404346	0.9589712830330465	0.0301	1.1817451318599779	0.9837103356951181	0.0301	1.120500563348732	0.7185019618972123	0.129	0.9800873113084666	0.38021332680117553	0.023	1.0025429883543961	0.27154740914331377	0.2179	0.9875625330792398	0.278686107831586	0.1804	0.964320592311988	0.32456778231258576	-0.0119	1.3625180658065574	0.9357579735882369	0.0301	1.3410242293686458	0.625235715125833	0.129	1.1952299162781506	0.35734640994670636	0.023	1.273738745855909	0.2519888410451571	0.2179	1.2906095915658269	0.26426676240870334	0.1804	1.1579124782916814	0.3176471979635893	-0.0119	1.4009079367030772	1.3894383310524956	0.0008	1.4636550663965822	1.6029383425393244	0.0655	1.423911187813339	1.446973084120758	0.1076	1.2357766984486374	1.382663207620294	-0.01275	1.0852842573117047	1.2125072134875097	0.0702	0.9765787827413441	1.06206896262843	0.1076	1.5489431059063967	1.3344807192181143	-0.01275	1.5614648915307237	1.1001180079667094	0.0702	1.5758061614225192	0.9173071296214268	0.1076
169	5.650720164609053	1.274901223361048	0.9605774335897675	0.0301	1.18168212467417	0.9839177082717881	0.0301	1.1206574136584824	0.7161483577558799	0.129	0.985098295752483	0.3842638596852234	0.023	0.9970258635645308	0.2756668266273909	0.2179	0.9885489169595083	0.2857255104883527	0.1804	0.9684427713204332	0.32901178704664624	-0.0119	1.3667525885526863	0.936440588426032	0.0301	1.3565821714757333	0.622414565674006	0.129	1.2019563809104807	0.36412408798731943	0.023	1.2763319757383693	0.25169766883222183	0.2179	1.294028539558074	0.266778087966701	0.1804	1.1620054640119926	0.3283834157024651	-0.0119	1.3970479528219357	1.396801663844819	0.0008	1.4576235952090864	1.6090342040083734	0.0655	1.4172707842749372	1.452774513242757	0.1076	1.232032910408554	1.3871939230028074	-0.01275	1.083535145337565	1.211676682221136	0.0702	0.9746862861601988	1.0617758543642455	0.1076	1.5470627296477455	1.3379646286257254	-0.01275	1.5617666431393555	1.1044989086213426	0.0702	1.5758394184906457	0.9189457370761146	0.1076
